<?xml version="1.0" standalone="no"?>
<!DOCTYPE svg PUBLIC "-//W3C//DTD SVG 20010904//EN"
 "http://www.w3.org/TR/2001/REC-SVG-20010904/DTD/svg10.dtd">
<svg version="1.0" xmlns="http://www.w3.org/2000/svg"
 width="1280.000000pt" height="1280.000000pt" viewBox="0 0 1280.000000 1280.000000"
 preserveAspectRatio="xMidYMid meet">
<g transform="translate(0.000000,1280.000000) scale(0.100000,-0.100000)"
fill="#000000" stroke="none">
<path d="M6150 12790 c-41 -5 -147 -13 -235 -20 -1963 -142 -3768 -1206 -4858
-2865 -591 -899 -950 -1954 -1027 -3015 -6 -85 -15 -199 -21 -253 -12 -125
-12 -349 0 -474 6 -54 15 -168 21 -253 117 -1619 880 -3169 2095 -4259 1058
-948 2393 -1520 3785 -1621 85 -6 199 -15 253 -21 125 -12 349 -12 474 0 54 6
168 15 253 21 1726 125 3353 975 4461 2330 821 1004 1326 2267 1419 3550 6 85
15 199 21 253 5 54 9 160 9 237 0 77 -4 183 -9 237 -6 54 -15 168 -21 253
-125 1726 -975 3353 -2330 4461 -1004 821 -2267 1326 -3550 1419 -85 6 -199
15 -253 21 -113 10 -377 10 -487 -1z m760 -1305 c1069 -118 2021 -527 2825
-1213 129 -110 427 -408 537 -537 278 -326 511 -679 704 -1065 114 -230 184
-399 269 -655 354 -1060 354 -2170 0 -3230 -110 -330 -246 -637 -414 -930
-138 -240 -445 -676 -481 -683 -22 -4 -7184 7162 -7177 7181 15 40 448 343
682 478 635 364 1376 598 2090 658 72 6 150 13 175 15 109 9 654 -4 790 -19z
m-861 -5439 c2474 -2474 3582 -3589 3578 -3599 -15 -40 -448 -343 -682 -478
-536 -307 -1155 -525 -1760 -618 -297 -46 -426 -55 -785 -55 -359 0 -488 9
-785 55 -931 144 -1821 555 -2550 1177 -129 110 -427 408 -537 537 -278 326
-511 679 -704 1065 -114 230 -184 399 -269 655 -177 531 -265 1065 -265 1615
0 990 291 1965 837 2798 143 220 304 432 326 432 7 0 1625 -1613 3596 -3584z"/>
</g>
</svg>
